<?xml version="1.0" encoding="UTF-8" standalone="no"?>
<svg
   xmlns:dc="http://purl.org/dc/elements/1.1/"
   xmlns:cc="http://creativecommons.org/ns#"
   xmlns:rdf="http://www.w3.org/1999/02/22-rdf-syntax-ns#"
   xmlns:svg="http://www.w3.org/2000/svg"
   xmlns="http://www.w3.org/2000/svg"
   id="svg8"
   version="1.1"
   viewBox="0 0 10 10"
   height="10mm"
   width="10mm">
  <defs
     id="defs2" />
  <metadata
     id="metadata5">
    <rdf:RDF>
      <cc:Work
         rdf:about="">
        <dc:format>image/svg+xml</dc:format>
        <dc:type
           rdf:resource="http://purl.org/dc/dcmitype/StillImage" />
        <dc:title></dc:title>
      </cc:Work>
    </rdf:RDF>
  </metadata>
  <g
     transform="translate(0,-287)"
     id="layer1">
    <path
       id="path970"
       transform="matrix(0.26458333,0,0,0.26458333,0,287)"
       d="M 18.898438,0.66601562 A 15.001432,15.001432 0 0 0 3.8964844,15.667969 15.001432,15.001432 0 0 0 14.289062,29.935547 l 4.609376,7.984375 4.617187,-7.998047 a 15.001432,15.001432 0 0 0 10.382813,-14.253906 15.001432,15.001432 0 0 0 -15,-15.00195338 z"
       style="opacity:1;fill:#ff0005;fill-opacity:1;fill-rule:evenodd;stroke:none;stroke-width:0.75590551;stroke-miterlimit:4;stroke-dasharray:none;stroke-opacity:1" />
    <path
       id="path817"
       transform="matrix(0.26458333,0,0,0.26458333,0,287)"
       d="m 18.898438,2.5410156 a 13.126241,13.126241 0 0 1 13.125,13.1269534 13.126241,13.126241 0 0 1 -13.125,13.126953 A 13.126241,13.126241 0 0 1 5.7714844,15.667969 13.126241,13.126241 0 0 1 18.898438,2.5410156 Z"
       style="opacity:1;fill:#fffa95;fill-opacity:1;fill-rule:evenodd;stroke:none;stroke-width:0.75590551;stroke-miterlimit:4;stroke-dasharray:none;stroke-opacity:1" />
    <path
       id="path829"
       transform="matrix(0.26458333,0,0,0.26458333,0,287)"
       d="M 18.898438,4 A 10.730191,8.2924578 0 0 0 8.1679688,12.292969 10.730191,8.2924578 0 0 0 11.535156,18.310547 10.730191,8.2924578 0 0 0 9.9082031,19.835938 H 27.878906 A 10.730191,8.2924578 0 0 0 26.261719,18.318359 10.730191,8.2924578 0 0 0 29.626953,12.292969 10.730191,8.2924578 0 0 0 18.898438,4 Z M 9.5664062,20.251953 A 10.730191,8.2924578 0 0 0 8.9375,21.292969 h 19.912109 a 10.730191,8.2924578 0 0 0 -0.632812,-1.041016 z m -0.8574218,1.5 a 10.730191,8.2924578 0 0 0 -0.4550782,1.570313 13.126241,13.126241 0 0 0 0.042969,0.05469 H 29.503906 a 13.126241,13.126241 0 0 0 0.0332,-0.04297 10.730191,8.2924578 0 0 0 -0.460937,-1.582031 z m 0.019531,2.167969 a 13.126241,13.126241 0 0 0 1.5820316,1.625 h 17.195312 a 13.126241,13.126241 0 0 0 1.576172,-1.625 z m 2.8632816,2.625 a 13.126241,13.126241 0 0 0 7.306641,2.25 13.126241,13.126241 0 0 0 7.316406,-2.25 z"
       style="opacity:1;fill:#ff2549;fill-opacity:1;fill-rule:evenodd;stroke:none;stroke-width:0.75590551;stroke-miterlimit:4;stroke-dasharray:none;stroke-opacity:1" />
  </g>
</svg>
