<?xml version="1.0" encoding="UTF-8" standalone="no"?>
<svg
   xmlns:dc="http://purl.org/dc/elements/1.1/"
   xmlns:cc="http://creativecommons.org/ns#"
   xmlns:rdf="http://www.w3.org/1999/02/22-rdf-syntax-ns#"
   xmlns:svg="http://www.w3.org/2000/svg"
   xmlns="http://www.w3.org/2000/svg"
   id="svg8"
   version="1.1"
   viewBox="0 0 10 10"
   height="10mm"
   width="10mm">
  <defs
     id="defs2" />
  <metadata
     id="metadata5">
    <rdf:RDF>
      <cc:Work
         rdf:about="">
        <dc:format>image/svg+xml</dc:format>
        <dc:type
           rdf:resource="http://purl.org/dc/dcmitype/StillImage" />
        <dc:title></dc:title>
      </cc:Work>
    </rdf:RDF>
  </metadata>
  <g
     transform="translate(0,-287)"
     id="layer1">
    <path
       id="path819"
       transform="matrix(0.26458333,0,0,0.26458333,0,287)"
       d="M 18.898438 0.91601562 C 16.445181 0.91601564 18.533071 4.4862371 16.126953 4.9648438 C 13.720835 5.4434504 14.284092 1.3463356 12.017578 2.2851562 C 9.7510646 3.2239769 13.045668 5.7229812 11.005859 7.0859375 C 8.9660511 8.4488938 7.9183081 4.4488794 6.1835938 6.1835938 C 4.4488794 7.9183081 8.4488938 8.9660511 7.0859375 11.005859 C 5.7229812 13.045668 3.2239769 9.7510646 2.2851562 12.017578 C 1.3463356 14.284092 5.4434503 13.720835 4.9648438 16.126953 C 4.4862372 18.533071 0.91601561 16.445181 0.91601562 18.898438 C 0.91601564 21.351694 4.4862371 19.261851 4.9648438 21.667969 C 5.4434504 24.074087 1.3463356 23.512783 2.2851562 25.779297 C 3.2239769 28.04581 5.7229812 24.749254 7.0859375 26.789062 C 8.4488938 28.828871 4.4488794 29.876614 6.1835938 31.611328 C 7.9183081 33.346042 8.9660511 29.346028 11.005859 30.708984 C 13.045668 32.071941 9.7510646 34.570945 12.017578 35.509766 C 14.284092 36.448586 13.720835 32.351472 16.126953 32.830078 C 18.533071 33.308685 16.445181 36.878906 18.898438 36.878906 C 21.351694 36.878906 19.261851 33.308685 21.667969 32.830078 C 24.074087 32.351472 23.512783 36.448586 25.779297 35.509766 C 28.04581 34.570945 24.749254 32.071941 26.789062 30.708984 C 28.828871 29.346028 29.876614 33.346042 31.611328 31.611328 C 33.346042 29.876614 29.346028 28.828871 30.708984 26.789062 C 32.071941 24.749254 34.570945 28.04581 35.509766 25.779297 C 36.448586 23.512783 32.351472 24.074087 32.830078 21.667969 C 33.308685 19.261851 36.878906 21.351694 36.878906 18.898438 C 36.878906 16.445181 33.308685 18.533071 32.830078 16.126953 C 32.351472 13.720835 36.448586 14.284092 35.509766 12.017578 C 34.570945 9.7510646 32.071941 13.045668 30.708984 11.005859 C 29.346028 8.9660511 33.346042 7.9183081 31.611328 6.1835938 C 29.876614 4.4488794 28.828871 8.4488938 26.789062 7.0859375 C 24.749254 5.7229812 28.04581 3.2239769 25.779297 2.2851562 C 23.512783 1.3463356 24.074087 5.4434503 21.667969 4.9648438 C 19.261851 4.4862372 21.351694 0.91601561 18.898438 0.91601562 z M 18.898438 10.417969 A 8.4799765 8.4799765 0 0 1 27.376953 18.898438 A 8.4799765 8.4799765 0 0 1 18.898438 27.376953 A 8.4799765 8.4799765 0 0 1 10.417969 18.898438 A 8.4799765 8.4799765 0 0 1 18.898438 10.417969 z "
       style="opacity:1;fill:#8e8e8e;fill-opacity:1;fill-rule:evenodd;stroke:#e0e0e0;stroke-width:0.75590551;stroke-miterlimit:4;stroke-dasharray:none;stroke-opacity:1" />
    <circle
       r="1.6923926"
       cy="292"
       cx="5"
       id="path824"
       style="opacity:1;fill:#8e8e8e;fill-opacity:1;fill-rule:evenodd;stroke:#e0e0e0;stroke-width:0.2;stroke-miterlimit:4;stroke-dasharray:none;stroke-opacity:1" />
  </g>
</svg>
