<?xml version="1.0" encoding="UTF-8" standalone="no"?>
<svg
   xmlns:dc="http://purl.org/dc/elements/1.1/"
   xmlns:cc="http://creativecommons.org/ns#"
   xmlns:rdf="http://www.w3.org/1999/02/22-rdf-syntax-ns#"
   xmlns:svg="http://www.w3.org/2000/svg"
   xmlns="http://www.w3.org/2000/svg"
   xmlns:xlink="http://www.w3.org/1999/xlink"
   id="svg876"
   version="1.1"
   viewBox="0 0 10 10"
   height="10mm"
   width="10mm">
  <defs
     id="defs870">
    <linearGradient
       id="linearGradient921">
      <stop
         id="stop917"
         offset="0"
         style="stop-color:#004d0c;stop-opacity:1;" />
      <stop
         id="stop919"
         offset="1"
         style="stop-color:#f4ff7c;stop-opacity:1" />
    </linearGradient>
    <linearGradient
       gradientUnits="userSpaceOnUse"
       y2="31.288065"
       x2="18.897638"
       y1="6.3273473"
       x1="18.897638"
       id="linearGradient923"
       xlink:href="#linearGradient921" />
  </defs>
  <metadata
     id="metadata873">
    <rdf:RDF>
      <cc:Work
         rdf:about="">
        <dc:format>image/svg+xml</dc:format>
        <dc:type
           rdf:resource="http://purl.org/dc/dcmitype/StillImage" />
        <dc:title></dc:title>
      </cc:Work>
    </rdf:RDF>
  </metadata>
  <g
     transform="translate(0,-287)"
     id="layer1">
    <path
       id="rect941"
       transform="matrix(0.26458333,0,0,0.26458333,0,287)"
       d="m 5.4082031,0.45898438 c -0.9160077,0.0429542 -1.9130828,0.45941493 -3.0625,1.41992182 -6.1302251,5.1227039 6.2519531,6.5854811 6.2519531,13.8300778 1e-7,7.244597 -12.3821784,8.709328 -6.2519531,13.832032 5.6948947,4.75892 7.6146305,-3.827974 14.8085939,-5.072266 v 8.492188 c 0,2.620208 0.778161,4.272091 1.744141,4.272091 0.965979,0 1.742187,-1.651883 1.742187,-4.272091 V 24.46875 c 7.193963,1.244292 9.1137,9.831187 14.808594,5.072266 6.130225,-5.122704 -6.251953,-6.587435 -6.251953,-13.832032 0,-7.2445965 12.382178,-8.7073743 6.251953,-13.8300778 -6.130226,-5.1227035 -7.881334,5.2246094 -16.550781,5.2246094 -7.043927,0 -9.520868,-6.83066614 -13.4902349,-6.64453122 z"
       style="opacity:1;fill:#f4ff7c;fill-opacity:1;fill-rule:evenodd;stroke:#000000;stroke-width:1.13385832;stroke-miterlimit:4;stroke-dasharray:none;stroke-opacity:1" />
    <circle
       r="1.2899668"
       cy="289.39252"
       cx="6.5490627"
       id="path890"
       style="opacity:1;fill:#ff4930;fill-opacity:1;fill-rule:evenodd;stroke:#ffffe9;stroke-width:0.2;stroke-miterlimit:4;stroke-dasharray:none;stroke-opacity:1" />
    <path
       id="path892"
       transform="matrix(0.26458333,0,0,0.26458333,0,287)"
       d="M 9.1816406,6.453125 C 7.4454673,6.589399 5.9612769,7.6274746 4.6542969,9.2128906 6.6338144,10.86218 8.5976562,12.819219 8.5976562,15.708984 c 1e-7,7.244597 -12.3821784,8.709328 -6.2519531,13.832032 6.1302255,5.122703 7.8832869,-5.22461 16.5527349,-5.22461 8.669447,0 10.420556,10.347313 16.550781,5.22461 6.130225,-5.122704 -6.251953,-6.587435 -6.251953,-13.832032 0,-1.215396 0.353163,-2.26466 0.904296,-3.199218 C 28.755962,11.157329 27.329103,9.8060762 25.605469,9.7109375 22.530313,9.5413501 20.537755,14.441783 17.476562,14.103516 14.598818,13.657909 13.272041,6.1360226 9.1816406,6.453125 Z"
       style="fill:url(#linearGradient923);fill-opacity:1;fill-rule:evenodd;stroke:#000000;stroke-width:0.75590552;stroke-linecap:butt;stroke-linejoin:miter;stroke-miterlimit:4;stroke-dasharray:none;stroke-opacity:1" />
  </g>
</svg>
